<?xml version="1.0" standalone="no"?>
<!DOCTYPE svg PUBLIC "-//W3C//DTD SVG 20010904//EN"
 "http://www.w3.org/TR/2001/REC-SVG-20010904/DTD/svg10.dtd">
<svg version="1.0" xmlns="http://www.w3.org/2000/svg"
 width="103.000000pt" height="100.000000pt" viewBox="0 0 103.000000 100.000000"
 preserveAspectRatio="xMidYMid meet">
<metadata>
Created by potrace 1.15, written by Peter Selinger 2001-2017
</metadata>
<g transform="translate(0.000000,100.000000) scale(0.100000,-0.100000)"
fill="#000000" stroke="none">
<path d="M608 705 c4 -16 7 -62 7 -100 0 -58 -5 -78 -28 -117 -15 -26 -42 -59
-60 -72 -65 -50 -169 -70 -233 -46 -15 6 -29 8 -32 6 -2 -3 16 -11 41 -18 25
-6 44 -15 42 -19 -7 -11 116 21 155 41 21 11 54 38 73 60 l35 42 45 -25 c24
-14 56 -37 71 -52 15 -15 29 -26 30 -24 11 13 46 90 38 85 -5 -3 -15 -19 -22
-36 -7 -16 -16 -30 -21 -30 -5 0 -1 17 10 38 l19 38 -72 32 -71 32 0 63 c0 37
-7 76 -17 97 -16 33 -17 34 -10 5z"/>
<path d="M790 420 c-12 -23 -20 -43 -18 -45 2 -1 49 -28 106 -59 106 -59 135
-64 147 -25 12 36 -6 57 -78 94 -40 20 -86 46 -104 56 l-32 20 -21 -41z"/>
</g>
</svg>
